<svg width="1200" height="1200" viewBox="0 0 1200 1200" fill="none" xmlns="http://www.w3.org/2000/svg">
<rect width="1200" height="1200" rx="350" fill="url(#paint0_linear_97_17)"/>
<path d="M200.72 881.24C200.36 879.8 200.18 877.94 200.18 875.66C200.18 873.38 200.24 871.88 200.36 871.16C210.92 869.84 218.78 869.18 223.94 869.18C229.1 869.18 233.48 869.78 237.08 870.98C239.96 893.54 249.98 928.4 267.14 975.56L273.8 976.1C274.04 978.74 274.16 980.6 274.16 981.68C274.16 982.64 273.98 984.14 273.62 986.18C270.26 986.06 265.04 986 257.96 986C250.88 986 245.96 986.06 243.2 986.18C242.84 984.38 242.66 982.7 242.66 981.14C242.66 979.46 242.78 977.78 243.02 976.1L249.32 975.56C248.72 972.68 247.76 968.54 246.44 963.14C245.12 957.62 244.4 954.56 244.28 953.96C237.44 953.6 230 953.42 221.96 953.42C214.04 953.42 206.6 953.66 199.64 954.14L194.6 975.56L201.44 976.1C201.68 978.74 201.8 980.6 201.8 981.68C201.8 982.64 201.62 984.14 201.26 986.18C198.38 986.06 193.64 986 187.04 986C180.56 986 176 986.06 173.36 986.18C173 984.38 172.82 982.7 172.82 981.14C172.82 979.46 172.94 977.78 173.18 976.1L179.48 975.56C193.88 936.08 203.36 904.82 207.92 881.78L200.72 881.24ZM202.88 941.54C206.96 941.66 213.08 941.72 221.24 941.72C229.4 941.72 236 941.54 241.04 941.18C235.4 919.82 229.46 900.08 223.22 881.96H222.14C215.06 899.12 208.64 918.98 202.88 941.54ZM328.438 899.96C345.358 899.96 353.818 914.36 353.818 943.16C353.818 954.2 351.658 964.22 347.338 973.22C344.938 978.02 341.338 981.8 336.538 984.56C331.738 987.32 326.398 988.7 320.518 988.7C314.638 988.7 308.518 987.26 302.158 984.38C302.758 999.38 303.298 1008.98 303.778 1013.18L310.438 1013.72L310.798 1018.4C310.798 1020.8 310.618 1022.6 310.258 1023.8C307.378 1023.68 302.398 1023.62 295.318 1023.62C288.358 1023.62 283.678 1023.68 281.278 1023.8C280.918 1021.76 280.738 1019.96 280.738 1018.4C280.738 1016.84 280.858 1015.28 281.098 1013.72L287.758 1013.18C288.718 1000.1 289.198 982.64 289.198 960.8C289.198 938.84 288.718 922.82 287.758 912.74L281.098 912.2C280.738 911.12 280.558 909.44 280.558 907.16C280.558 904.76 280.618 903.08 280.738 902.12C286.258 902 293.638 901.46 302.878 900.5L303.778 901.4C303.298 904.88 302.998 908.3 302.878 911.66C311.158 903.86 319.678 899.96 328.438 899.96ZM318.898 975.74C331.978 975.74 338.518 964.1 338.518 940.82C338.518 926.66 336.178 917.72 331.498 914C329.338 912.32 326.518 911.48 323.038 911.48C319.558 911.48 315.898 912.62 312.058 914.9C308.218 917.18 304.978 919.94 302.338 923.18C302.098 933.14 301.978 949.28 301.978 971.6C308.938 974.36 314.578 975.74 318.898 975.74ZM417.384 899.96C434.304 899.96 442.764 914.36 442.764 943.16C442.764 954.2 440.604 964.22 436.284 973.22C433.884 978.02 430.284 981.8 425.484 984.56C420.684 987.32 415.344 988.7 409.464 988.7C403.584 988.7 397.464 987.26 391.104 984.38C391.704 999.38 392.244 1008.98 392.724 1013.18L399.384 1013.72L399.744 1018.4C399.744 1020.8 399.564 1022.6 399.204 1023.8C396.324 1023.68 391.344 1023.62 384.264 1023.62C377.304 1023.62 372.624 1023.68 370.224 1023.8C369.864 1021.76 369.684 1019.96 369.684 1018.4C369.684 1016.84 369.804 1015.28 370.044 1013.72L376.704 1013.18C377.664 1000.1 378.144 982.64 378.144 960.8C378.144 938.84 377.664 922.82 376.704 912.74L370.044 912.2C369.684 911.12 369.504 909.44 369.504 907.16C369.504 904.76 369.564 903.08 369.684 902.12C375.204 902 382.584 901.46 391.824 900.5L392.724 901.4C392.244 904.88 391.944 908.3 391.824 911.66C400.104 903.86 408.624 899.96 417.384 899.96ZM407.844 975.74C420.924 975.74 427.464 964.1 427.464 940.82C427.464 926.66 425.124 917.72 420.444 914C418.284 912.32 415.464 911.48 411.984 911.48C408.504 911.48 404.844 912.62 401.004 914.9C397.164 917.18 393.924 919.94 391.284 923.18C391.044 933.14 390.924 949.28 390.924 971.6C397.884 974.36 403.524 975.74 407.844 975.74ZM480.229 972.32C485.149 972.68 490.789 972.86 497.149 972.86C503.629 972.86 511.789 972.44 521.629 971.6L522.169 959.18C524.209 958.82 526.009 958.64 527.569 958.64C529.249 958.64 530.809 958.7 532.249 958.82C532.609 968.66 533.149 977.78 533.869 986.18L532.969 987.08C524.449 986 512.449 985.46 496.969 985.46C481.489 985.46 468.649 985.88 458.449 986.72C457.729 984.92 457.309 982.76 457.189 980.24C462.349 972.08 471.949 955.94 485.989 931.82C500.029 907.58 509.629 891.26 514.789 882.86C510.709 882.74 505.069 882.68 497.869 882.68C490.669 882.68 482.149 883.1 472.309 883.94L471.769 897.26C469.849 897.62 468.049 897.8 466.369 897.8C464.689 897.8 463.129 897.74 461.689 897.62C461.329 887.78 460.789 878.66 460.069 870.26L460.969 869.36C469.849 870.44 482.809 870.98 499.849 870.98C517.009 870.98 528.049 870.62 532.969 869.9C533.569 871.1 533.869 873.38 533.869 876.74C528.709 886.46 519.109 903.68 505.069 928.4C491.029 953.12 482.749 967.76 480.229 972.32ZM578.568 946.04C572.688 946.04 567.228 945.74 562.188 945.14C562.428 965.54 569.208 975.74 582.528 975.74C589.248 975.74 596.688 972.02 604.848 964.58C608.328 968.18 610.548 972.92 611.508 978.8C601.668 985.4 591.228 988.7 580.188 988.7C569.148 988.7 560.928 984.92 555.528 977.36C550.128 969.68 547.428 958.46 547.428 943.7C547.428 928.94 550.428 917.96 556.428 910.76C562.548 903.56 571.188 899.96 582.348 899.96C590.628 899.96 597.468 902.48 602.868 907.52C608.268 912.56 610.968 918.74 610.968 926.06C611.088 933.38 610.488 938.6 609.168 941.72C600.168 944.6 589.968 946.04 578.568 946.04ZM581.088 910.04C569.928 910.04 563.688 918.26 562.368 934.7C567.768 935.3 573.708 935.6 580.188 935.6C586.668 935.6 591.708 935 595.308 933.8C595.788 930.8 596.028 928.58 596.028 927.14C596.028 921.86 594.648 917.72 591.888 914.72C589.248 911.6 585.648 910.04 581.088 910.04ZM690.379 923.9L689.659 949.82C689.659 957.98 690.139 965.96 691.099 973.76L697.759 974.3C697.999 976.22 698.119 978.02 698.119 979.7C698.119 981.26 697.939 982.94 697.579 984.74C694.099 984.86 687.319 985.46 677.239 986.54C676.399 984.26 675.739 981.44 675.259 978.08C665.899 985.16 657.799 988.7 650.959 988.7C644.239 988.7 638.959 986.54 635.119 982.22C631.399 977.78 629.539 971.54 629.539 963.5C629.539 955.34 632.059 948.92 637.099 944.24C642.259 939.56 648.679 937.22 656.359 937.22C664.159 937.22 670.819 938.66 676.339 941.54C676.459 940.22 676.519 938.06 676.519 935.06C676.519 926.18 675.259 919.82 672.739 915.98C670.339 912.02 666.619 910.04 661.579 910.04C656.539 910.04 652.879 911 650.599 912.92C651.559 914.84 652.039 917.24 652.039 920.12C652.039 923 651.079 925.52 649.159 927.68C647.359 929.72 644.779 930.74 641.419 930.74C635.779 930.74 632.959 927.44 632.959 920.84C632.959 914.12 635.479 908.96 640.519 905.36C645.559 901.76 652.639 899.96 661.759 899.96C670.879 899.96 677.899 902.12 682.819 906.44C687.859 910.64 690.379 916.46 690.379 923.9ZM675.619 952.88C670.699 948.68 665.419 946.58 659.779 946.58C648.979 946.58 643.579 951.38 643.579 960.98C643.579 970.82 647.839 975.74 656.359 975.74C659.479 975.74 662.779 974.96 666.259 973.4C669.859 971.72 672.679 969.68 674.719 967.28C675.319 960.08 675.619 955.28 675.619 952.88ZM722.357 944.24V919.58C722.357 897.98 722.057 883.28 721.457 875.48L714.257 874.94C713.897 873.38 713.717 871.58 713.717 869.54C713.717 867.38 713.777 865.82 713.897 864.86C724.817 864.26 732.617 863.72 737.297 863.24L738.017 864.14C736.337 878.42 735.497 893.78 735.497 910.22V939.92C735.497 954.68 736.037 966.56 737.117 975.56L743.777 976.1C744.017 978.02 744.137 979.7 744.137 981.14C744.137 982.46 743.957 984.14 743.597 986.18C739.397 986.06 734.537 986 729.017 986C723.497 986 718.697 986.06 714.617 986.18C714.257 984.38 714.077 982.82 714.077 981.5C714.077 980.06 714.197 978.26 714.437 976.1L720.737 975.56C721.817 964.28 722.357 953.84 722.357 944.24ZM820.809 923.9L820.089 949.82C820.089 957.98 820.569 965.96 821.529 973.76L828.189 974.3C828.429 976.22 828.549 978.02 828.549 979.7C828.549 981.26 828.369 982.94 828.009 984.74C824.529 984.86 817.749 985.46 807.669 986.54C806.829 984.26 806.169 981.44 805.689 978.08C796.329 985.16 788.229 988.7 781.389 988.7C774.669 988.7 769.389 986.54 765.549 982.22C761.829 977.78 759.969 971.54 759.969 963.5C759.969 955.34 762.489 948.92 767.529 944.24C772.689 939.56 779.109 937.22 786.789 937.22C794.589 937.22 801.249 938.66 806.769 941.54C806.889 940.22 806.949 938.06 806.949 935.06C806.949 926.18 805.689 919.82 803.169 915.98C800.769 912.02 797.049 910.04 792.009 910.04C786.969 910.04 783.309 911 781.029 912.92C781.989 914.84 782.469 917.24 782.469 920.12C782.469 923 781.509 925.52 779.589 927.68C777.789 929.72 775.209 930.74 771.849 930.74C766.209 930.74 763.389 927.44 763.389 920.84C763.389 914.12 765.909 908.96 770.949 905.36C775.989 901.76 783.069 899.96 792.189 899.96C801.309 899.96 808.329 902.12 813.249 906.44C818.289 910.64 820.809 916.46 820.809 923.9ZM806.049 952.88C801.129 948.68 795.849 946.58 790.209 946.58C779.409 946.58 774.009 951.38 774.009 960.98C774.009 970.82 778.269 975.74 786.789 975.74C789.909 975.74 793.209 974.96 796.689 973.4C800.289 971.72 803.109 969.68 805.149 967.28C805.749 960.08 806.049 955.28 806.049 952.88ZM915.787 923L915.607 940.46C915.607 953.06 916.327 964.76 917.767 975.56L924.067 976.1C924.307 978.74 924.427 980.6 924.427 981.68C924.427 982.64 924.247 984.14 923.887 986.18C920.527 986.06 915.487 986 908.767 986C902.047 986 897.247 986.06 894.367 986.18C894.007 984.38 893.827 982.7 893.827 981.14C893.827 979.46 893.947 977.78 894.187 976.1L900.487 975.56C901.447 961.52 901.927 949.52 901.927 939.56C901.927 929.48 900.907 922.28 898.867 917.96C896.947 913.64 893.587 911.48 888.787 911.48C882.307 911.48 875.167 915.38 867.367 923.18C867.247 926.3 867.187 933.62 867.187 945.14C867.187 956.54 867.727 966.68 868.807 975.56L875.467 976.1C875.707 978.74 875.827 980.6 875.827 981.68C875.827 982.64 875.647 984.14 875.287 986.18C871.927 986.06 867.007 986 860.527 986C854.047 986 849.307 986.06 846.307 986.18C845.947 984.38 845.767 982.7 845.767 981.14C845.767 979.46 845.887 977.78 846.127 976.1L852.427 975.56C853.507 963.56 854.047 952.58 854.047 942.62C854.047 932.54 853.567 922.58 852.607 912.74L845.947 912.2C845.587 910.16 845.407 908.18 845.407 906.26C845.407 904.22 845.467 902.84 845.587 902.12C851.707 902 859.147 901.46 867.907 900.5L868.807 901.4C868.567 902.84 868.207 906.44 867.727 912.2C871.447 908.48 875.767 905.54 880.687 903.38C885.607 901.1 890.227 899.96 894.547 899.96C908.707 899.96 915.787 907.64 915.787 923ZM992.683 904.28L992.863 892.94C992.863 885.74 992.623 879.92 992.143 875.48L984.943 874.94C984.583 873.5 984.403 871.64 984.403 869.36C984.403 867.08 984.463 865.58 984.583 864.86C995.263 864.38 1003.06 863.84 1007.98 863.24L1008.7 864.14C1006.9 879.86 1006 900.14 1006 924.98C1006 949.7 1006.54 966.02 1007.62 973.94L1014.28 974.3C1014.52 976.94 1014.64 978.92 1014.64 980.24C1014.64 981.44 1014.46 982.94 1014.1 984.74C1009.42 984.98 1002.88 985.58 994.483 986.54C993.523 984.62 992.803 981.56 992.323 977.36C984.043 984.92 975.643 988.7 967.123 988.7C958.723 988.7 952.243 984.86 947.683 977.18C943.243 969.5 941.023 958.64 941.023 944.6C941.023 930.44 943.843 919.46 949.483 911.66C955.243 903.86 963.463 899.96 974.143 899.96C980.143 899.96 986.323 901.4 992.683 904.28ZM974.323 910.58C962.323 910.58 956.323 922.52 956.323 946.4C956.323 955.4 957.643 962.42 960.283 967.46C963.043 972.38 966.823 974.84 971.623 974.84C974.863 974.84 978.403 973.82 982.243 971.78C986.203 969.74 989.623 967.16 992.503 964.04C992.743 949.16 992.863 933.08 992.863 915.8C985.183 912.32 979.003 910.58 974.323 910.58Z" fill="url(#paint1_linear_97_17)"/>
<path d="M963.863 190H235C179.772 190 135 234.772 135 290V668.2C135 723.428 179.771 768.2 235 768.2H963.862C1019.09 768.2 1063.86 723.428 1063.86 668.2V290C1063.86 234.772 1019.09 190 963.863 190Z" fill="url(#paint2_linear_97_17)"/>
<path d="M1064.2 290C1064.2 234.772 1019.43 190 964.199 190H937.227C898.187 190 866.348 219.362 851.704 255.552V255.552C836.394 293.447 816.826 316.481 802.614 333.158C778.241 361.889 754.211 378.566 707.18 410.764C694.479 419.433 671.135 435.12 616.278 467.648C562.588 499.433 545.011 508.185 517.205 524.532C450.47 563.665 401.38 593.139 351.741 642.592V642.592C302.046 692.195 344.507 768 414.721 768C597.881 768 781.04 768 964.199 768C1019.43 768 1064.2 723.228 1064.2 668V290Z" fill="url(#paint3_linear_97_17)"/>
<path d="M869.268 190C876.067 215.933 888.91 268.954 850.863 263.916C850.039 265.816 849.284 267.798 848.459 269.698C849.284 269.698 850.108 269.698 850.863 269.698C852.168 268.541 856.014 269.119 858.143 269.119C864.392 269.119 873.458 268.789 873.664 276.139C867.964 288.197 853.198 288.941 842.21 283.159C840.63 286.298 838.982 289.354 837.403 292.492C845.163 290.179 864.942 290.675 867.895 300.09C857.662 312.643 843.995 314.13 830.123 304.715C828.749 307.358 826.62 308.927 825.315 311.735C827.719 311.735 830.123 311.735 832.595 311.735C834.655 313.387 838.364 312.478 840.836 313.469C845.575 315.369 856.975 321.563 857.8 327.427C847.704 336.594 825.315 344.027 812.267 329.161C809.52 331.226 805.743 335.768 804.026 339.072C818.31 334.942 834.037 347.909 839.394 362.94C825.521 372.602 806.155 372.768 793.862 359.471C791.87 357.737 791.595 354.929 788.505 354.268C785.62 359.388 779.302 361.288 776.418 366.491C779.165 366.491 781.912 366.491 784.659 366.491C786.994 368.39 793.312 368.06 796.265 369.381C804.026 372.933 817.418 382.43 818.516 393.249C798.944 399.774 770.992 401.673 759.935 379.292C759.935 379.457 759.935 379.705 759.935 379.87C757.944 381.192 747.367 390.359 747.367 390.937C765.292 393.497 786.513 403.903 791.389 425.872C768.932 432.479 743.865 424.137 728.001 404.316C726.284 406.464 719.485 411.088 716.875 411.914C736.791 418.108 755.609 432.974 762.408 457.338C762.064 457.338 761.79 457.338 761.446 457.338C737.272 464.44 701.904 460.228 689.336 430.579C683.43 432.148 678.554 437.764 672.853 439.912C696.203 445.28 719.347 462.541 728.069 489.96C727.52 490.456 728.001 489.878 727.589 490.538C698.47 495.328 663.376 486.904 647.718 454.447C645.795 456.76 636.661 462.293 633.708 463.202C633.708 463.367 633.708 463.615 633.708 463.78C660.766 467.331 681.095 496.567 688.443 526.629C650.946 526.051 624.368 507.717 604.657 480.05C602.46 482.279 593.257 487.235 590.167 488.226C590.167 488.639 590.167 488.969 590.167 489.382C617.019 493.264 645.932 527.868 651.152 559.252C617.019 565.776 571.967 537.201 562.078 504.496C560.361 506.478 550.266 512.424 547.587 513.25C547.587 513.415 547.587 513.663 547.587 513.828C573.41 518.123 605.482 565.528 612.967 594.186C574.44 598.481 532.753 563.711 516.133 532.493C510.983 534.393 507.411 539.348 502.123 541.247C502.123 541.413 502.123 541.66 502.123 541.825C525.13 547.937 572.654 602.693 572.791 632.672C527.259 634.655 482.276 602.693 464.351 565.693C462.497 567.923 459.887 568.584 457.552 570.318C454.668 572.548 452.058 576.1 448.349 577.338C448.349 577.504 448.349 577.751 448.349 577.917C483.1 590.552 528.495 638.123 537.904 680.987C498.277 698.908 424.313 648.612 412.981 604.097C411.058 607.4 407.006 609.3 404.259 611.695C398.696 616.485 393.546 623.092 387.296 626.809C387.296 626.974 387.296 627.222 387.296 627.387C436.949 645.226 484.748 689.658 504.733 747.718C498.621 748.544 490.036 748.296 483.924 750.03C480.078 751.104 472.936 750.361 469.914 749.452C457.689 748.213 446.358 748.378 434.545 744.249C396.567 732.191 369.646 700.973 354.194 659.266C325.487 689.576 298.84 725.997 282.564 768.117C267.249 768.117 251.934 768.117 236.551 768.117C236.551 767.952 236.551 767.704 236.551 767.539C250.836 743.671 265.738 718.977 283.526 698.247C286.41 693.54 290.05 690.319 293.209 686.024C294.033 682.143 297.536 680.243 300.008 677.848C428.365 501.605 784.453 432.231 847.017 253.428C843.583 248.472 843.034 243.022 835.411 242.939C827.238 253.841 838.227 262.099 840.218 268.541C837.746 270.771 835.274 276.222 833.9 279.608C829.573 272.836 828.681 265.155 819.409 263.916C815.357 273.744 818.516 288.445 824.766 292.987C822.98 297.365 819.615 300.09 817.486 304.054C817.349 304.054 817.143 304.054 817.006 304.054C815.975 294.391 809.863 286.133 801.485 283.655C794.823 291.253 795.647 303.559 800.042 310.992C801.553 313.469 805.88 315.038 806.841 317.434C804.438 319.168 796.128 327.592 794.754 330.235C794.617 330.235 794.411 330.235 794.274 330.235C794.274 329.822 794.274 329.491 794.274 329.078C791.527 318.59 789.192 306.449 777.31 305.21C772.915 313.469 770.855 328.087 774.907 336.677C776.418 339.402 780.676 340.723 781.706 343.118C781.568 343.118 781.362 343.118 781.225 343.118C779.577 345.183 777.448 346.092 775.388 347.743C771.954 350.634 768.726 355.672 764.262 357.076C764.262 356.663 764.262 356.333 764.262 355.92C765.841 353.442 764.262 346.67 763.781 344.275C761.721 334.777 760.279 322.719 751.213 322.141C740.637 332.96 736.86 355.507 746.887 370.455C746.749 370.455 746.543 370.455 746.406 370.455C746.406 370.62 746.406 370.868 746.406 371.033C741.873 373.924 737.341 376.897 732.877 379.788C732.533 360.379 734.044 351.377 722.232 335.52C721.888 335.52 721.614 335.52 721.27 335.52C710.763 346.917 709.664 368.969 712.068 384.991C712.548 387.055 714.197 390.359 713.51 392.011C711.45 394.488 704.582 398.618 701.423 399.609C703.208 383.339 701.629 369.629 696.066 358.893C693.594 354.02 691.533 347.496 685.902 346.67C677.592 360.049 670.106 393.167 675.738 408.941C676.287 410.51 677.111 412.492 676.699 412.988C674.982 415.053 664.612 420.338 661.659 421.164C661.659 420.421 661.659 419.595 661.659 418.852C664.131 414.97 662.964 405.472 664.063 399.609C667.016 384.082 660.698 358.81 651.014 353.607C633.433 372.107 630.961 407.207 637.485 433.965C632.952 436.278 628.42 438.59 623.956 440.985C627.595 419.678 629.93 366.326 609.465 358.893C589.274 382.926 589.823 423.89 597.378 453.787C595.729 455.686 584.192 461.137 581.376 461.963C581.376 460.972 581.376 460.063 581.376 459.072C585.428 432.148 589.686 376.567 568.328 363.022C544.291 391.102 545.87 439.251 559.125 473.03C552.326 477.324 543.947 480.215 536.874 484.674C547.519 446.684 546.626 392.919 521.353 367.069C521.215 367.069 521.009 367.069 520.872 367.069C520.872 367.234 520.872 367.482 520.872 367.647C502.329 385.734 495.668 439.334 499.101 467.166C499.788 476.663 500.544 484.84 503.978 493.346C505.214 495.741 507.549 496.815 508.304 499.788C499.17 504.991 490.654 509.781 481.658 514.902C492.715 489.134 492.509 384.247 465.175 376.319C427.334 413.071 433.653 484.922 452.607 532.328C445.877 536.209 439.422 539.596 432.76 543.395C429.738 545.625 426.167 549.011 422.596 550.415C429.601 503.67 434.202 424.468 394.988 397.874C355.155 438.673 358.795 526.712 382.901 578.329C382.763 578.329 382.557 578.329 382.42 578.329C374.11 585.515 364.976 592.287 356.254 599.307C364.427 568.089 354.194 438.921 316.559 441.563C281.603 494.668 294.514 575.604 318.482 631.351C316.834 635.976 311.958 637.545 309.279 641.262C308.936 641.262 308.661 641.262 308.318 641.262C280.504 576.265 271.851 497.806 294.789 428.762C487.083 282.003 697.783 420.586 834.587 236.662C841.592 225.265 850.039 215.107 856.838 203.462C858.006 201.48 863.088 190.743 864.118 190.083C865.766 190 867.483 190 869.268 190Z" fill="white"/>
<defs>
<linearGradient id="paint0_linear_97_17" x1="1036.8" y1="62.4" x2="130" y2="1138.8" gradientUnits="userSpaceOnUse">
<stop stop-color="#2D2D2D"/>
<stop offset="0.673077" stop-color="#151515"/>
</linearGradient>
<linearGradient id="paint1_linear_97_17" x1="173" y1="927" x2="1024" y2="927" gradientUnits="userSpaceOnUse">
<stop stop-color="white"/>
<stop offset="1" stop-color="#CCCCCC"/>
</linearGradient>
<linearGradient id="paint2_linear_97_17" x1="837.311" y1="190" x2="176.37" y2="730.277" gradientUnits="userSpaceOnUse">
<stop offset="0.0240385" stop-color="#C3C3C3"/>
<stop offset="0.495192" stop-color="#646464"/>
<stop offset="0.942308" stop-color="#272727"/>
</linearGradient>
<linearGradient id="paint3_linear_97_17" x1="1020.84" y1="190" x2="395.546" y2="768.431" gradientUnits="userSpaceOnUse">
<stop offset="0.0989008" stop-color="#505050"/>
<stop offset="0.427637" stop-color="#707070"/>
<stop offset="0.840388" stop-color="#B4B4B4"/>
</linearGradient>
</defs>
</svg>
